<svg xmlns="http://www.w3.org/2000/svg" width="32" height="30" viewBox="0 0 32 30">
    <g fill="none" fill-rule="nonzero">
        <path fill="#FFF" d="M29.633 0H2.36C1.058 0 0 .968 0 2.163v25.672C0 29.03 1.058 30 2.36 30h27.273C30.937 30 32 29.03 32 27.835V2.163C32 .968 30.937 0 29.633 0z"/>
        <path fill="#2F60FF" d="M4.936 10.972H9.54V25.5H4.936V10.972zM7.24 3.75c1.471 0 2.666 1.173 2.666 2.618 0 1.446-1.195 2.619-2.666 2.619-1.477 0-2.668-1.173-2.668-2.619 0-1.445 1.191-2.618 2.668-2.618zM17.403 10.863v2.001h.063c.62-1.15 2.134-2.364 4.393-2.364 4.7 0 5.57 3.03 5.57 6.973V25.5h-4.643v-7.118c0-1.697-.03-3.88-2.412-3.88-2.416 0-2.784 1.85-2.784 3.759V25.5h-4.638V10.863h4.45z"/>
    </g>
</svg>
